<svg width="52" height="52" viewBox="0 0 52 52" fill="none" xmlns="http://www.w3.org/2000/svg">
<path d="M11.4256 51.3972C8.39633 51.3939 5.49213 50.189 3.35015 48.047C1.20816 45.9051 0.00333004 43.0009 0 39.9716V30.6471C0.00388546 26.9118 1.48945 23.3306 4.13072 20.6893C6.77199 18.048 10.3532 16.5625 14.0885 16.5586H39.9716C40.6463 16.5586 41.3143 16.4257 41.9375 16.1675C42.5608 15.9094 43.1271 15.5309 43.6042 15.0539C44.0812 14.5769 44.4596 14.0106 44.7178 13.3873C44.976 12.764 45.1088 12.096 45.1088 11.4214C45.1088 10.7467 44.976 10.0787 44.7178 9.45544C44.4596 8.83217 44.0812 8.26585 43.6042 7.78881C43.1271 7.31178 42.5608 6.93338 41.9375 6.67521C41.3143 6.41704 40.6463 6.28416 39.9716 6.28416H30.6471C28.5796 6.28638 26.5974 7.10867 25.1355 8.57061C23.6735 10.0326 22.8512 12.0147 22.849 14.0822V15.5102H16.5586V14.0885C16.5625 10.3532 18.048 6.77199 20.6893 4.13072C23.3306 1.48945 26.9118 0.00388546 30.6471 0H39.9716C43.0024 0 45.9091 1.20398 48.0522 3.34708C50.1953 5.49018 51.3993 8.39685 51.3993 11.4277C51.3993 14.4585 50.1953 17.3651 48.0522 19.5082C45.9091 21.6513 43.0024 22.8553 39.9716 22.8553H14.0885C12.0221 22.8575 10.0409 23.679 8.57912 25.1395C7.11736 26.6001 6.29434 28.5807 6.29045 30.6471V39.9716C6.29045 40.6463 6.42333 41.3143 6.6815 41.9375C6.93967 42.5608 7.31807 43.1271 7.7951 43.6042C8.27214 44.0812 8.83846 44.4596 9.46173 44.7178C10.085 44.976 10.753 45.1088 11.4277 45.1088C12.1023 45.1088 12.7703 44.976 13.3936 44.7178C14.0169 44.4596 14.5832 44.0812 15.0602 43.6042C15.5372 43.1271 15.9156 42.5608 16.1738 41.9375C16.432 41.3143 16.5649 40.6463 16.5649 39.9716V38.6066H22.8553V39.9716C22.8525 43.0018 21.6473 45.9069 19.5043 48.0491C17.3613 50.1914 14.4557 51.3955 11.4256 51.3972Z" fill="url(#paint0_linear_1577_351)"/>
<path style="mix-blend-mode:multiply" d="M14.0881 16.5584C11.753 16.5561 9.45435 17.1378 7.40137 18.2505V26.6378C8.093 25.4815 9.07258 24.5242 10.2445 23.8594C11.4165 23.1946 12.7407 22.845 14.0881 22.8447H33.7101V16.5542L14.0881 16.5584Z" fill="url(#paint1_linear_1577_351)"/>
<path d="M22.849 15.1245H16.5586V38.9968H22.849V15.1245Z" fill="url(#paint2_linear_1577_351)"/>
<defs>
<linearGradient id="paint0_linear_1577_351" x1="-3.47443" y1="49.6589" x2="50.2293" y2="-4.04686" gradientUnits="userSpaceOnUse">
<stop stop-color="#00CEFF"/>
<stop offset="0.52" stop-color="#3D30EF"/>
<stop offset="0.99" stop-color="#00CEFF"/>
</linearGradient>
<linearGradient id="paint1_linear_1577_351" x1="10.3893" y1="21.6012" x2="31.0325" y2="21.6012" gradientUnits="userSpaceOnUse">
<stop stop-color="#5E89DC" stop-opacity="0"/>
<stop offset="0.47" stop-color="#030205" stop-opacity="0.3"/>
<stop offset="0.93" stop-color="#8A60E6" stop-opacity="0"/>
</linearGradient>
<linearGradient id="paint2_linear_1577_351" x1="-3.5373" y1="50.3049" x2="51.414" y2="-4.64638" gradientUnits="userSpaceOnUse">
<stop stop-color="#00CEFF"/>
<stop offset="0.52" stop-color="#3D30EF"/>
<stop offset="0.99" stop-color="#00CEFF"/>
</linearGradient>
</defs>
</svg>
